<svg width="12" height="16" viewBox="0 0 12 16" fill="none" xmlns="http://www.w3.org/2000/svg">
<path fill-rule="evenodd" clip-rule="evenodd" d="M7.04001 0.836813C7.20242 0.887887 7.3443 0.989438 7.44501 1.1267C7.54572 1.26396 7.60003 1.42977 7.60001 1.60001V5.60001H10.8C10.9463 5.59995 11.0899 5.64002 11.215 5.71587C11.3402 5.79172 11.4421 5.90045 11.5098 6.03021C11.5774 6.15997 11.6082 6.3058 11.5987 6.45183C11.5892 6.59785 11.5399 6.73848 11.456 6.85841L5.85601 14.8584C5.75855 14.998 5.61908 15.1029 5.45789 15.1578C5.29669 15.2127 5.12219 15.2147 4.95977 15.1636C4.79735 15.1125 4.65548 15.0108 4.55481 14.8735C4.45413 14.7362 4.39991 14.5703 4.40001 14.4V10.4H1.20001C1.05368 10.4001 0.91013 10.36 0.784988 10.2842C0.659846 10.2083 0.557906 10.0996 0.490262 9.96982C0.422618 9.84006 0.391861 9.69423 0.401338 9.5482C0.410816 9.40217 0.460164 9.26154 0.544014 9.14161L6.14401 1.14161C6.24162 1.00224 6.38113 0.897623 6.54225 0.842954C6.70338 0.788285 6.87775 0.786414 7.04001 0.837613V0.836813Z" fill="white"/>
</svg>
