<svg width="32" height="32" viewBox="0 0 32 32" fill="none" xmlns="http://www.w3.org/2000/svg">
<path d="M13.334 32C15.748 32 17.7681 30.2798 18.2318 28H8.43408C8.89983 30.2798 10.9178 32 13.334 32Z" fill="#F99784"/>
<path d="M23.4341 19.3281C23.3999 19.3281 23.3663 19.334 23.332 19.334C17.4503 19.334 12.666 14.5477 12.666 8.668C12.666 6.358 13.4121 4.22213 14.666 2.47412V1.334C14.666 0.59625 14.0697 0 13.334 0C12.5982 0 12 0.59625 12 1.334V2.774C7.48387 3.42388 4 7.30813 4 12V15.7178C4 18.356 2.84425 20.8463 0.815874 22.562C0.559976 22.7809 0.35454 23.0527 0.213697 23.3586C0.0728552 23.6645 -4.93279e-05 23.9972 2.50405e-08 24.334C2.50405e-08 25.6201 1.04587 26.668 2.334 26.668H24.334C25.6201 26.668 26.668 25.6221 26.668 24.334C26.668 23.6519 26.3701 23.0059 25.8399 22.5518C24.7861 21.6621 23.9761 20.5561 23.4341 19.3281Z" fill="#F55B3D"/>
<path d="M23.334 0C18.5561 0 14.668 3.88813 14.668 8.666C14.668 13.4439 18.5561 17.332 23.334 17.332C28.1118 17.332 32 13.4458 32 8.666C32 3.88625 28.1118 0 23.334 0ZM26 10.334C26 11.6201 24.9541 12.668 23.666 12.668H21.666C21.4008 12.668 21.1464 12.5626 20.9589 12.3751C20.7713 12.1876 20.666 11.9332 20.666 11.668C20.666 11.4028 20.7713 11.1484 20.9589 10.9609C21.1464 10.7734 21.4008 10.668 21.666 10.668H23.666C23.8501 10.668 24 10.518 24 10.334V9.668H21.666C21.4008 9.668 21.1464 9.56264 20.9589 9.37511C20.7713 9.18757 20.666 8.93322 20.666 8.668C20.666 8.40278 20.7713 8.14843 20.9589 7.96089C21.1464 7.77336 21.4008 7.668 21.666 7.668H24V7C24 6.81588 23.85 6.666 23.666 6.666H21.666C21.4008 6.666 21.1464 6.56064 20.9589 6.37311C20.7713 6.18557 20.666 5.93122 20.666 5.666C20.666 5.40078 20.7713 5.14643 20.9589 4.95889C21.1464 4.77136 21.4008 4.666 21.666 4.666H23.666C24.9522 4.666 26 5.71187 26 7V10.334Z" fill="#F99784"/>
</svg>
