<svg width="21" height="21" viewBox="0 0 21 21" fill="none" xmlns="http://www.w3.org/2000/svg">
<rect width="21" height="21" rx="10" fill="white"/>
<path d="M17.3816 4.75153C17.2973 4.77961 17.2224 4.81706 17.1382 4.84514C13.4122 6.38048 9.6768 7.91582 5.9508 9.45116C5.14568 9.77882 4.34057 10.1158 3.54481 10.4622C3.47928 10.4903 3.40438 10.5652 3.38566 10.6401C3.3763 10.6776 3.46992 10.7525 3.53545 10.7899C3.61034 10.8367 3.6946 10.8648 3.77886 10.8929C5.1176 11.4359 6.44698 11.9788 7.78572 12.5031C7.80444 12.5125 7.82316 12.5218 7.83252 12.5218L8.15083 15.9763C8.15083 16.0232 8.16955 16.07 8.18827 16.1168C8.25381 16.2572 8.44104 16.304 8.57211 16.201C9.33042 15.5738 10.0794 14.9465 10.8189 14.3006C10.9875 14.1508 11.1185 14.1508 11.3151 14.2538C12.3636 14.8248 13.4215 15.3772 14.4794 15.9389C15.1067 16.2666 15.1067 16.2666 15.2658 15.5738C15.9024 12.7278 16.5297 9.8818 17.1663 7.02645C17.316 6.33367 17.4752 5.6409 17.625 4.94812C17.625 4.78897 17.5407 4.70472 17.3816 4.75153ZM14.9007 7.45709C13.2156 9.31073 11.5304 11.1737 9.84532 13.0274C9.7517 13.1304 9.66744 13.2521 9.60191 13.3738C9.28361 13.9823 8.9653 14.6002 8.647 15.2087L8.4036 12.5686C8.42232 12.5218 8.45977 12.4844 8.48785 12.4563C10.7909 10.5559 13.1126 8.66477 15.425 6.76432C15.4437 6.74559 15.4624 6.73623 15.4811 6.72687C15.4905 6.73623 15.5092 6.74559 15.5186 6.75495C15.322 6.989 15.116 7.22305 14.9007 7.45709Z" fill="#F34840"/>
</svg>
