<svg width="90" height="90" viewBox="0 0 90 90" fill="none" xmlns="http://www.w3.org/2000/svg">
<g clip-path="url(#clip0_195_1843)">
<path d="M87.2789 22.8252C84.9164 14.1293 75.8725 5.08359 67.1748 2.72109C61.8416 1.39219 54.6979 0.0228516 45 0C35.3021 0.0228516 28.1584 1.39219 22.8252 2.72109C14.1293 5.08359 5.08359 14.1275 2.72109 22.8252C1.39219 28.1584 0.0228516 35.3021 0 45C0.0228516 54.6979 1.39219 61.8416 2.72109 67.1748C5.08359 75.8725 14.1293 84.9164 22.8252 87.2789C28.1584 88.6078 35.3057 89.9771 45 90C54.6961 89.9771 61.8416 88.6078 67.1748 87.2789C75.8725 84.9164 84.9164 75.8725 87.2789 67.1748C88.6078 61.8416 89.9771 54.6943 90 45C89.9771 35.3021 88.6078 28.1584 87.2789 22.8252Z" fill="#F6F7F8"/>
<path d="M69.2641 39.7313C68.163 38.6605 67.0594 37.586 65.9531 36.5079C65.9219 35.011 65.8828 33.5131 65.8359 32.0141C65.7734 30.0094 64.9078 28.0969 63.4203 26.6094C61.9876 25.1471 60.0516 24.2855 58.0062 24.2C56.5042 24.1532 55.0031 24.1141 53.5031 24.0829C52.4177 22.9829 51.3432 21.8823 50.2797 20.7813C49.6049 20.0561 48.7878 19.4777 47.8796 19.0823C46.9714 18.6868 45.9914 18.4827 45.0008 18.4827C44.0102 18.4827 43.0302 18.6868 42.122 19.0823C41.2137 19.4777 40.3967 20.0561 39.7219 20.7813C38.6573 21.8834 37.5807 22.9865 36.4922 24.0907C34.9922 24.1198 33.4922 24.1584 31.9922 24.2063C27.8594 24.3469 24.3031 27.8954 24.1625 32.0188C24.1156 33.5157 24.0766 35.0136 24.0453 36.5125C22.9401 37.5928 21.8365 38.6662 20.7344 39.7329C19.2641 41.1625 18.4375 43.025 18.4375 45C18.444 45.988 18.6509 46.9643 19.0457 47.8699C19.4405 48.7756 20.015 49.5917 20.7344 50.2688C21.8365 51.3344 22.9401 52.4068 24.0453 53.486C24.0766 54.986 24.1156 56.4855 24.1625 57.9844C24.225 59.9922 25.0906 61.9 26.5766 63.3891C28.01 64.8513 29.9464 65.7128 31.9922 65.7985C33.4943 65.8454 34.9953 65.8844 36.4953 65.9157C37.5818 67.0178 38.6562 68.1188 39.7188 69.2188C40.3942 69.9437 41.2117 70.5218 42.1203 70.917C43.0289 71.3123 44.0092 71.5163 45 71.5163C45.9908 71.5163 46.9711 71.3123 47.8797 70.917C48.7883 70.5218 49.6058 69.9437 50.2812 69.2188C51.35 68.1198 52.4255 67.0183 53.5078 65.9141C55.0078 65.8839 56.5078 65.8454 58.0078 65.7985C62.1391 65.6579 65.6969 62.1063 65.8375 57.986C65.8844 56.4891 65.9234 54.9917 65.9547 53.4938C67.0599 52.4146 68.1635 51.3391 69.2656 50.2672C69.9842 49.5898 70.5582 48.7739 70.953 47.8687C71.3477 46.9634 71.5551 45.9876 71.5625 45C71.5625 43.0219 70.7359 41.1594 69.2641 39.7313Z" fill="url(#paint0_linear_195_1843)"/>
<path d="M58.2082 41.639C53.7332 46.289 49.1863 51.0437 44.716 55.7593C44.3524 56.144 43.9143 56.4506 43.4283 56.6605C42.9424 56.8703 42.4187 56.9789 41.8894 56.9796H41.8754C41.3465 56.9759 40.8237 56.8664 40.3377 56.6576C39.8518 56.4489 39.4125 56.145 39.0457 55.764C36.6566 53.2968 34.2504 50.8312 31.8582 48.3859C31.4942 48.0201 31.2071 47.5852 31.0137 47.1069C30.8202 46.6285 30.7244 46.1163 30.7318 45.6004C30.7393 45.0844 30.8498 44.5752 31.0569 44.1026C31.264 43.63 31.5635 43.2035 31.9379 42.8484C32.6916 42.1192 33.7029 41.7175 34.7516 41.7306C35.8002 41.7438 36.8011 42.1708 37.5363 42.9187C38.9644 44.3833 40.3957 45.8526 41.83 47.3265C45.38 43.6078 48.9457 39.8687 52.455 36.1812C53.9457 34.6187 56.4316 34.5874 58.03 36.0999C59.6285 37.6124 59.7097 40.0796 58.2082 41.639Z" fill="url(#paint1_linear_195_1843)"/>
</g>
<defs>
<linearGradient id="paint0_linear_195_1843" x1="64.5" y1="61.5" x2="27" y2="22" gradientUnits="userSpaceOnUse">
<stop stop-color="#F14141"/>
<stop offset="0.570131" stop-color="#F4523E"/>
<stop offset="0.8101" stop-color="#FC8935"/>
</linearGradient>
<linearGradient id="paint1_linear_195_1843" x1="51.5379" y1="48.939" x2="38.6863" y2="36.0874" gradientUnits="userSpaceOnUse">
<stop stop-color="#F0E6E5"/>
<stop offset="0.57" stop-color="white"/>
<stop offset="1" stop-color="white"/>
</linearGradient>
<clipPath id="clip0_195_1843">
<rect width="90" height="90" fill="white"/>
</clipPath>
</defs>
</svg>
